<?xml version="1.0" encoding="utf-8"?>
<!-- Generator: Adobe Illustrator 24.0.2, SVG Export Plug-In . SVG Version: 6.00 Build 0)  -->
<svg version="1.1" id="Logotipos" xmlns="http://www.w3.org/2000/svg" xmlns:xlink="http://www.w3.org/1999/xlink" x="0px" y="0px"
	 viewBox="0 0 1200 115.3" style="enable-background:new 0 0 1200 115.3;" xml:space="preserve">
<style type="text/css">
	.st0{fill:#003D4C;}
</style>
<title>Logotipo_cerceta</title>
<g id="Logotipo_cerceta">
	<path class="st0" d="M126.2,113.3h-21.1V34.9h21.1V113.3z"/>
	<path class="st0" d="M175.1,32.8c11.3,0,20.4,3.8,27.5,11.5c7.1,7.6,10.6,17.5,10.6,29.7c0,2.4-0.1,4.8-0.4,7.1h-55.6
		c1,5.5,3.3,9.5,6.9,12.2c3.8,2.8,8.5,4.2,13.2,4c7.3,0,14.3-2.7,19.8-7.5l12.4,13.6c-8.7,7.9-19.9,11.9-33.4,11.9
		c-12,0-21.8-3.8-29.4-11.3s-11.4-17.5-11.3-29.7c0-12.3,3.7-22.3,11-30C153.7,36.5,163.3,32.7,175.1,32.8z M174.9,51
		c-4.9,0-8.8,1.4-11.8,4.1c-2.9,2.7-4.9,6.6-5.9,11.6H192c-1-5.1-2.9-9-5.8-11.7C183.1,52.2,179,50.8,174.9,51z"/>
	<path class="st0" d="M308.5,89.9l16.8-55h22.1l-26.5,78.4h-24.1l-17.4-53l-17.2,53h-24l-26.5-78.4h22.5l16.7,54.8l17.6-54.8h22.2
		L308.5,89.9z"/>
	<path class="st0" d="M418.1,21.1H383v92.1h-22.5V21.1h-35.1V0h92.8L418.1,21.1z"/>
	<path class="st0" d="M548.7,113.3h-22.6V27.8l-28,74.6h-23.8l-28-73.9v84.9h-22.6V0h33.1l29.5,76.5L515.6,0h33.1L548.7,113.3
		L548.7,113.3z"/>
	<path class="st0" d="M602,32.8c12.2,0,22.3,3.9,30.4,11.8s12.1,17.7,12.1,29.5s-4,21.6-12.1,29.5s-18.2,11.8-30.4,11.8
		c-12.1,0-22.2-3.9-30.3-11.8s-12-17.7-12-29.5s4-21.6,12-29.5S589.8,32.8,602,32.8z M602,52.4c-5.6-0.2-11,2-14.9,6.1
		c-3.9,4-5.9,9.2-5.9,15.5s2,11.5,5.9,15.5c8.3,8.1,21.5,8.1,29.8,0c3.9-4,5.9-9.2,5.9-15.5s-2-11.5-5.9-15.5
		C613.1,54.4,607.6,52.2,602,52.4L602,52.4z"/>
	<path class="st0" d="M697.2,32.8c9,0,16.3,2.8,22,8.5s8.5,13,8.5,22.1v49.9h-21.1V70.1c0-5.7-1.3-10-4-13s-6.4-4.5-11.3-4.5
		c-4.4-0.1-8.7,1.5-11.9,4.6c-3.1,3-4.7,7.4-4.7,13.2v43h-21.1V34.9h20.5v9.2C679.3,36.5,686.9,32.8,697.2,32.8z"/>
	<path class="st0" d="M814.7,79.9c0.1,5.5-0.9,10.9-3,15.9c-1.8,4.3-4.6,8.2-8.2,11.1c-3.5,2.8-7.5,4.9-11.7,6.3
		c-4.6,1.4-9.3,2.1-14.1,2.1c-3.8,0-7.7-0.4-11.4-1.3c-3.6-0.8-7-2.2-10.2-4.1c-3.1-1.8-5.9-4.1-8.2-6.9c-2.4-3-4.3-6.4-5.4-10
		c-1.4-4.2-2-8.7-2-13.1v-45h21.1V78c0,6,1.5,10.4,4.4,13.3s6.8,4.3,11.7,4.3s8.7-1.4,11.7-4.3c2.9-2.9,4.4-7.3,4.4-13.3V34.9h21
		L814.7,79.9z"/>
	<path class="st0" d="M924.2,32.8c9.2,0,16.7,2.8,22.4,8.5s8.5,13,8.5,22.1v49.9h-21V70.1c0-5.7-1.3-10-4-13s-6.4-4.5-11.3-4.5
		c-4.4-0.1-8.7,1.5-11.9,4.6c-3.1,3-4.7,7.4-4.7,13.2v43h-21.1V70.1c0-5.7-1.3-10-4-13s-6.4-4.5-11.3-4.5c-4.4-0.1-8.7,1.5-11.9,4.6
		c-3.1,3-4.7,7.4-4.7,13.2v43h-21.1V34.9h20.5v9.2c5.1-7.6,12.8-11.3,23-11.3c5.3-0.1,10.5,1.1,15.2,3.5c4.4,2.3,8.1,5.7,10.7,9.9
		C903,37.2,911.9,32.8,924.2,32.8z"/>
	<path class="st0" d="M1003.3,32.8c11.3,0,20.4,3.8,27.5,11.5c7.1,7.6,10.6,17.5,10.6,29.7c0,2.4-0.1,4.8-0.4,7.1h-55.6
		c1,5.5,3.3,9.5,6.9,12.2c3.8,2.8,8.5,4.2,13.2,4c7.3,0,14.3-2.7,19.8-7.5l12.4,13.6c-8.7,7.9-19.9,11.9-33.4,11.9
		c-12,0-21.8-3.8-29.4-11.3c-7.6-7.6-11.4-17.4-11.3-29.6c0-12.3,3.7-22.3,11-30C982,36.5,991.6,32.7,1003.3,32.8z M1003.2,51
		c-4.9,0-8.8,1.4-11.8,4.1c-2.9,2.7-4.9,6.6-5.9,11.6h34.7c-1-5.1-2.9-9-5.8-11.7C1011.3,52.3,1007.3,50.8,1003.2,51L1003.2,51z"/>
	<path class="st0" d="M1094.2,32.8c9,0,16.3,2.8,22,8.5s8.6,13,8.5,22.1v49.9h-21.1V70.1c0-5.7-1.3-10-4-13s-6.4-4.5-11.3-4.5
		c-4.4-0.1-8.7,1.5-11.9,4.6c-3.1,3-4.7,7.4-4.7,13.2v43h-21.1V34.9h20.6v9.2C1076.2,36.5,1083.9,32.8,1094.2,32.8z"/>
	<path class="st0" d="M1194.2,53.6h-28.4v28.6c0,4.6,1.1,8,3.2,10.1c2.3,2.2,5.3,3.4,8.5,3.2c4.2,0,9.1-1.7,14.7-5.1l7.8,16.5
		c-7.6,5.4-16.7,8.3-26,8.3c-9.7,0-17-2.7-22-8s-7.4-13.1-7.4-23.3V53.6h-15.1V34.9h15.1V11.6h21.1v23.3h28.4L1194.2,53.6z"/>
	<g id="Isotipo_crema">
		<path class="st0" d="M0,0h23.5l32.6,90.4l19.5-55.6h24L70,113.3H42.6L0,0z"/>
		<path class="st0" d="M56.1,6c5.9,0,10.8,4.5,11.4,10.3c0.2,2.8-0.5,5.5-2,7.9c-2.4,4.3-9.3,12.5-9.3,12.5s-7.4-8.9-10-13.7
			c-3.1-5.5-1.2-12.4,4.3-15.5C52.1,6.5,54.1,6,56.1,6z"/>
	</g>
</g>
</svg>
